<svg xmlns="http://www.w3.org/2000/svg" width="69.064" height="68.092" viewBox="0 0 69.064 68.092"><g transform="translate(-20.468 -20.954)"><path d="M84.29,60.36c.8-.824,3.094-3.337,2.773-4.866,0,0-4.99-.649-7.254-10.656,5.59-1.629,10.48-8.958,9.625-13.19-1.07-5.233-6.866-10.694-12.071-10.694s-6.7,4.713-6.7,10.06c0,.392.018.809.05,1.24A23.062,23.062,0,0,0,64.69,30.8h0A37.468,37.468,0,0,1,45.2,22.576a.193.193,0,0,0-.271,0,.189.189,0,0,0-.05.1,17.01,17.01,0,0,0,.407,7.44,5.917,5.917,0,0,0-2.378-.495c-1.28,0-3.055.919-4.763,2.245.025-.11.05-.221.072-.331,1.205-6.092-3.123-9.86-8.877-9.115-4.862.638-8.873,4.092-8.873,9.126s4.075,9.507,8.977,9.507a7.349,7.349,0,0,0,1.426-.139C29.2,54.681,22.946,55.494,22.946,55.494c-.321,1.518,1.943,4.007,2.759,4.848a.356.356,0,0,1-.042.5h0l-.032.025a11.827,11.827,0,0,1-3.465,1.122,13.935,13.935,0,0,0,6.417,14.146.178.178,0,0,1-.1.331l-1.854-.092c0,6.894,10.064,12.669,22.459,12.669H60.929c12.406,0,22.555-5.643,22.555-12.541h-1.96a.194.194,0,0,1-.2-.175.2.2,0,0,1,.1-.182c8.284-5.126,6.416-14.159,6.416-14.159a12.222,12.222,0,0,1-3.5-1.144.317.317,0,0,1-.093-.435Z"/><ellipse cx="2.249" cy="5.397" rx="2.249" ry="5.397" transform="translate(62.266 49.601)" fill="#fff"/><ellipse cx="2.249" cy="5.397" rx="2.249" ry="5.397" transform="translate(43.226 49.601)" fill="#fff"/><path d="M58.11,65.4c0,1.144-3.116,2.071-3.116,2.071s-3.112-.927-3.112-2.071,1.394-2.068,3.112-2.068S58.11,64.263,58.11,65.4Z" fill="#fff"/></g></svg>